<?xml version="1.0" encoding="utf-8"?>
<!-- Generator: Adobe Illustrator 19.0.0, SVG Export Plug-In . SVG Version: 6.00 Build 0)  -->
<svg version="1.1" id="Ebene_1" xmlns="http://www.w3.org/2000/svg" xmlns:xlink="http://www.w3.org/1999/xlink" x="0px" y="0px"
	 viewBox="-445 277.9 68.6 7.1" style="enable-background:new -445 277.9 68.6 7.1;" xml:space="preserve">
<style type="text/css">
	.st0{fill:#1D1D1B;}
</style>
<path id="XMLID_4_" class="st0" d="M-376.4,278.8c0,0-1.1,0-2.9,0.1c-0.9,0-2.1,0.1-3.4,0.1c-1.3,0-2.8,0.1-4.4,0.1
	c-6.4,0-15,0-23.6,0s-17.2,0-23.6,0c-1.6-0.2-3.1-0.2-4.4-0.3c-1.3,0-2.4,0-3.4-0.1c-1.8,0-2.9-0.1-2.9-0.1s1.1,0,2.9-0.1
	c0.9,0,2.1-0.1,3.4-0.1c1.3,0,2.8-0.1,4.4-0.1c6.4,0,15,0,23.6,0c8.6,0,17.2,0,23.6,0c1.6,0,3.1,0,4.4,0.1c1.3,0,2.4,0.1,3.4,0.1
	C-377.4,278.7-376.4,278.8-376.4,278.8z"/>
<path id="XMLID_2_" class="st0" d="M-392.6,283.1c0,0-0.2,0-0.5,0.1c-0.2,0-0.4,0.1-0.6,0.1c-0.2,0-0.5,0.1-0.8,0.1
	c-1.2,0-2.8,0-4.4,0s-3.2,0-4.4,0c-0.3,0-0.6,0-0.8-0.1c-0.2,0-0.5-0.1-0.6-0.1c-0.3-0.1-0.5-0.1-0.5-0.1s0.2,0,0.5-0.1
	c0.2,0,0.4-0.1,0.6-0.1c0.2,0,0.5-0.1,0.8-0.1c1.2,0,2.8,0,4.4,0s3.2,0,4.4,0c0.3,0,0.6,0,0.8,0.1c0.2,0,0.5,0.1,0.6,0.1
	C-392.8,283.1-392.6,283.1-392.6,283.1z"/>
<path id="XMLID_1_" class="st0" d="M-416.8,283.1c0,0-0.2,0-0.5,0.1c-0.2,0-0.4,0.1-0.6,0.1c-0.2,0-0.5,0.1-0.8,0.1
	c-1.2,0-2.8,0-4.4,0s-3.2,0-4.4,0c-0.3,0-0.6,0-0.8-0.1c-0.2,0-0.5-0.1-0.6-0.1c-0.3-0.1-0.5-0.1-0.5-0.1s0.2,0,0.5-0.1
	c0.1-0.1,0.4-0.1,0.6-0.1c0.2,0,0.5-0.1,0.8-0.1c1.2,0,2.8,0,4.4,0s3.2,0,4.4,0c0.3,0,0.6,0,0.8,0.1c0.2,0,0.5,0.1,0.6,0.1
	C-417,283-416.8,283.1-416.8,283.1z"/>
<circle class="st0" cx="-410.7" cy="283.1" r="1.4"/>
</svg>
